<svg xmlns="http://www.w3.org/2000/svg" width="346.667" height="346.667" preserveAspectRatio="xMidYMid meet" version="1.0" viewBox="0 0 260 260"><metadata>Created by potrace 1.14, written by Peter Selinger 2001-2017</metadata><g fill="#000" stroke="none"><path d="M700 2581 c0 -29 -20 -38 -92 -43 -57 -3 -71 -8 -92 -31 -15 -16 -36 -27 -52 -27 -14 0 -41 -12 -60 -27 -59 -49 -224 -214 -235 -236 -7 -12 -18 -25 -25 -30 -7 -4 -15 -22 -19 -40 -4 -17 -18 -48 -32 -68 -16 -24 -26 -57 -30 -95 -6 -62 -29 -114 -50 -114 -10 0 -13 -112 -13 -565 0 -493 2 -565 15 -565 21 0 41 -54 48 -128 3 -44 12 -71 25 -85 11 -12 25 -40 31 -63 6 -22 20 -49 31 -59 11 -10 20 -22 20 -27 0 -13 197 -208 209 -208 6 0 18 -11 26 -24 10 -16 28 -25 54 -29 22 -3 48 -15 64 -31 22 -22 35 -26 86 -26 61 0 91 -15 91 -46 0 -12 87 -14 600 -14 571 0 600 1 600 18 0 31 22 42 87 42 56 0 66 3 93 30 22 22 40 30 65 30 26 0 39 6 51 24 8 14 31 30 49 36 44 14 161 132 175 176 7 19 20 39 30 44 11 6 28 29 40 53 11 23 27 53 35 67 8 14 15 44 15 67 0 33 6 46 30 66 l30 26 0 635 0 635 -27 13 c-24 12 -29 21 -34 71 -4 38 -15 70 -33 95 -14 21 -26 43 -26 50 0 6 -9 16 -21 22 -11 6 -28 30 -38 53 -23 54 -114 144 -167 167 -23 10 -48 27 -55 37 -8 11 -29 25 -47 31 -18 6 -45 20 -59 32 -17 13 -41 20 -70 20 -46 0 -93 23 -93 46 0 12 -98 14 -615 14 -595 0 -615 -1 -615 -19z m969 -632 c34 -34 41 -48 41 -80 0 -32 -7 -46 -43 -84 -40 -41 -48 -45 -91 -45 -41 0 -52 5 -86 39 -36 35 -40 45 -40 87 0 42 5 53 37 86 33 34 42 38 89 38 47 0 55 -4 93 -41z m-290 -153 c33 -18 101 -91 101 -110 0 -7 14 -30 30 -51 17 -21 30 -44 30 -51 0 -33 30 -44 124 -44 58 0 96 -4 104 -12 18 -18 15 -103 -4 -119 -18 -15 -140 -21 -231 -12 -53 6 -54 6 -99 74 -46 67 -47 68 -73 55 -14 -8 -43 -30 -64 -50 -51 -48 -48 -74 15 -104 75 -35 81 -59 73 -277 -8 -205 -14 -225 -70 -225 -22 0 -43 8 -55 20 -18 18 -20 33 -20 153 0 152 -4 174 -34 183 -11 4 -33 17 -48 30 -16 12 -38 26 -50 30 -46 14 -148 120 -148 153 0 23 66 103 172 208 164 163 190 178 247 149z m490 -522 c42 -15 91 -39 109 -55 18 -16 37 -29 43 -29 5 0 17 -17 26 -37 8 -21 26 -51 40 -67 24 -29 25 -34 21 -147 -3 -113 -4 -119 -30 -146 -16 -16 -28 -33 -28 -38 0 -13 -86 -92 -109 -100 -12 -3 -21 -10 -21 -14 0 -21 -70 -36 -162 -35 -78 0 -101 4 -123 20 -15 10 -43 29 -62 40 -61 37 -118 124 -133 203 -11 59 -10 80 5 157 17 88 22 97 82 157 57 57 69 65 123 81 30 9 62 20 70 26 25 16 69 11 149 -16z m-911 -8 c74 -21 162 -99 203 -179 27 -52 32 -74 33 -137 1 -66 -3 -83 -34 -148 -19 -40 -42 -74 -51 -77 -9 -3 -21 -17 -27 -30 -6 -14 -18 -25 -25 -25 -8 0 -32 -12 -53 -27 -48 -33 -108 -43 -198 -36 -51 5 -75 12 -95 29 -15 12 -40 26 -54 30 -15 3 -32 14 -37 24 -5 10 -23 32 -40 48 -16 17 -30 38 -30 47 0 9 -11 37 -25 63 -33 61 -33 120 0 190 14 30 25 60 25 67 0 12 55 71 119 128 18 15 43 27 59 27 15 0 38 7 52 15 30 17 103 14 178 -9z" transform="translate(0.000000,260.000000) scale(0.100000,-0.100000)"/><path d="M1675 1135 c-49 -28 -65 -44 -92 -95 -41 -74 -42 -116 -6 -178 59 -102 123 -132 243 -116 41 5 59 15 96 49 43 41 45 46 51 113 10 120 -10 165 -103 228 -61 42 -115 42 -189 -1z" transform="translate(0.000000,260.000000) scale(0.100000,-0.100000)"/><path d="M770 1145 c-19 -14 -40 -25 -47 -25 -7 0 -20 -12 -30 -27 -9 -16 -25 -36 -35 -46 -14 -14 -18 -34 -18 -99 l0 -81 46 -53 c54 -63 97 -79 191 -71 79 8 91 15 143 79 l42 53 -4 80 c-3 72 -6 83 -31 107 -15 15 -27 32 -27 37 0 6 -15 18 -32 26 -18 9 -44 22 -58 30 -40 23 -101 19 -140 -10z" transform="translate(0.000000,260.000000) scale(0.100000,-0.100000)"/></g></svg>